<svg width="78" height="20" viewBox="0 0 78 20" fill="none" xmlns="http://www.w3.org/2000/svg">
<path fill-rule="evenodd" clip-rule="evenodd" d="M7.53845 1C7.53845 0.447715 7.09074 0 6.53845 0C5.98617 0 5.53845 0.447715 5.53845 1V4C5.53845 4.26522 5.43309 4.51957 5.24556 4.70711C5.05802 4.89464 4.80367 5 4.53845 5H1.53845C0.986167 5 0.538452 5.44772 0.538452 6C0.538452 6.55228 0.986167 7 1.53845 7H4.53845C5.3341 7 6.09716 6.68393 6.65977 6.12132C7.22238 5.55871 7.53845 4.79565 7.53845 4V1ZM15.5385 1C15.5385 0.447715 15.0907 0 14.5385 0C13.9862 0 13.5385 0.447715 13.5385 1V4C13.5385 4.79565 13.8545 5.55871 14.4171 6.12132C14.9797 6.68393 15.7428 7 16.5385 7H19.5385C20.0907 7 20.5385 6.55228 20.5385 6C20.5385 5.44772 20.0907 5 19.5385 5H16.5385C16.2732 5 16.0189 4.89464 15.8313 4.70711C15.6438 4.51957 15.5385 4.26522 15.5385 4V1ZM1.53845 13C0.986167 13 0.538452 13.4477 0.538452 14C0.538452 14.5523 0.986167 15 1.53845 15H4.53845C4.80367 15 5.05802 15.1054 5.24556 15.2929C5.4331 15.4804 5.53845 15.7348 5.53845 16V19C5.53845 19.5523 5.98617 20 6.53845 20C7.09074 20 7.53845 19.5523 7.53845 19V16C7.53845 15.2044 7.22238 14.4413 6.65977 13.8787C6.09716 13.3161 5.3341 13 4.53845 13H1.53845ZM15.8313 15.2929C16.0189 15.1054 16.2732 15 16.5385 15H19.5385C20.0907 15 20.5385 14.5523 20.5385 14C20.5385 13.4477 20.0907 13 19.5385 13H16.5385C15.7428 13 14.9797 13.3161 14.4171 13.8787C13.8545 14.4413 13.5385 15.2043 13.5385 16V19C13.5385 19.5523 13.9862 20 14.5385 20C15.0907 20 15.5385 19.5523 15.5385 19V16C15.5385 15.7348 15.6438 15.4804 15.8313 15.2929ZM68.2674 16.1455C67.372 16.1455 66.539 16.0435 65.7684 15.8395C64.9977 15.6242 64.3687 15.3238 63.8814 14.9385C63.7114 14.8138 63.5867 14.6835 63.5074 14.5475C63.4394 14.4002 63.4054 14.2188 63.4054 14.0035C63.4054 13.7202 63.4904 13.4708 63.6604 13.2555C63.8417 13.0402 64.0457 12.9325 64.2724 12.9325C64.397 12.9325 64.516 12.9552 64.6294 13.0005C64.754 13.0345 64.9014 13.1025 65.0714 13.2045C65.5587 13.5105 66.0517 13.7372 66.5504 13.8845C67.049 14.0205 67.5987 14.0885 68.1994 14.0885C68.9474 14.0885 69.5197 13.9638 69.9164 13.7145C70.313 13.4652 70.5114 13.1082 70.5114 12.6435C70.5114 12.2922 70.3244 12.0088 69.9504 11.7935C69.5877 11.5782 68.936 11.3742 67.9954 11.1815C66.9414 10.9662 66.097 10.7055 65.4624 10.3995C64.839 10.0935 64.38 9.71383 64.0854 9.26049C63.802 8.80716 63.6604 8.25749 63.6604 7.61149C63.6604 6.89749 63.8644 6.25716 64.2724 5.69049C64.6917 5.11249 65.264 4.66483 65.9894 4.34749C66.726 4.01883 67.5534 3.85449 68.4714 3.85449C70.0807 3.85449 71.4067 4.25683 72.4494 5.06149C72.6194 5.19749 72.7384 5.33916 72.8064 5.48649C72.8857 5.62249 72.9254 5.79249 72.9254 5.99649C72.9254 6.27983 72.8347 6.52916 72.6534 6.74449C72.4834 6.95983 72.285 7.06749 72.0584 7.06749C71.9337 7.06749 71.8147 7.05049 71.7014 7.01649C71.5994 6.98249 71.452 6.90883 71.2594 6.79549C70.7947 6.50083 70.364 6.27983 69.9674 6.13249C69.582 5.98516 69.089 5.91149 68.4884 5.91149C67.797 5.91149 67.253 6.04749 66.8564 6.31949C66.4597 6.58016 66.2614 6.94283 66.2614 7.40749C66.2614 7.67949 66.335 7.90616 66.4824 8.08749C66.641 8.25749 66.896 8.41049 67.2474 8.54649C67.61 8.68249 68.12 8.82416 68.7774 8.97149C70.3187 9.31149 71.4237 9.74783 72.0924 10.2805C72.7724 10.8132 73.1124 11.5442 73.1124 12.4735C73.1124 13.1988 72.9084 13.8392 72.5004 14.3945C72.1037 14.9498 71.537 15.3805 70.8004 15.6865C70.075 15.9925 69.2307 16.1455 68.2674 16.1455ZM50.9963 14.3775C51.087 14.5815 51.1323 14.7628 51.1323 14.9215C51.1323 15.2388 51.002 15.5108 50.7413 15.7375C50.492 15.9528 50.203 16.0605 49.8743 16.0605C49.659 16.0605 49.455 16.0038 49.2623 15.8905C49.0696 15.7658 48.9223 15.5845 48.8203 15.3465L47.9193 13.3405H42.1563L41.2553 15.3465C41.1533 15.5845 41.006 15.7658 40.8133 15.8905C40.632 16.0038 40.428 16.0605 40.2013 16.0605C39.8726 16.0605 39.578 15.9528 39.3173 15.7375C39.0566 15.5108 38.9263 15.2388 38.9263 14.9215C38.9263 14.7628 38.9716 14.5815 39.0623 14.3775L43.6523 4.73849C43.777 4.46649 43.964 4.26249 44.2133 4.12649C44.4626 3.97916 44.729 3.90549 45.0123 3.90549C45.307 3.90549 45.579 3.97916 45.8283 4.12649C46.0776 4.27383 46.2703 4.47783 46.4063 4.73849L50.9963 14.3775ZM43.0573 11.3345H47.0183L45.0463 6.91449L43.0573 11.3345ZM34.8765 16.0775C34.4798 16.0775 34.1568 15.9585 33.9075 15.7205C33.6695 15.4825 33.5505 15.1652 33.5505 14.7685V6.16649H30.7965C29.9578 6.16649 29.5385 5.80383 29.5385 5.07849C29.5385 4.36449 29.9578 4.00749 30.7965 4.00749H38.9565C39.7951 4.00749 40.2145 4.36449 40.2145 5.07849C40.2145 5.80383 39.7951 6.16649 38.9565 6.16649H36.2025V14.7685C36.2025 15.1652 36.0835 15.4825 35.8455 15.7205C35.6075 15.9585 35.2845 16.0775 34.8765 16.0775ZM52.9509 15.7375C53.1889 15.9755 53.5119 16.0945 53.9199 16.0945C54.3279 16.0945 54.6509 15.9755 54.8889 15.7375C55.1269 15.4995 55.2459 15.1765 55.2459 14.7685V11.4875H58.1019C59.4052 11.4875 60.4196 11.1588 61.1449 10.5015C61.8702 9.84416 62.2329 8.92616 62.2329 7.74749C62.2329 6.56883 61.8702 5.65083 61.1449 4.99349C60.4196 4.33616 59.4052 4.00749 58.1019 4.00749H53.8349C53.4382 4.00749 53.1322 4.11516 52.9169 4.33049C52.7016 4.54583 52.5939 4.85183 52.5939 5.24849V14.7685C52.5939 15.1765 52.7129 15.4995 52.9509 15.7375ZM59.7509 7.76449C59.7509 8.90916 59.0879 9.48149 57.7619 9.48149H55.2459V6.03049H57.7619C59.0879 6.03049 59.7509 6.60849 59.7509 7.76449ZM75.3796 15.7375C75.6176 15.9755 75.9406 16.0945 76.3486 16.0945C76.7566 16.0945 77.0796 15.9755 77.3176 15.7375C77.5556 15.4995 77.6746 15.1765 77.6746 14.7685V5.23149C77.6746 4.83483 77.5556 4.51749 77.3176 4.27949C77.0796 4.04149 76.7566 3.92249 76.3486 3.92249C75.9406 3.92249 75.6176 4.04149 75.3796 4.27949C75.1416 4.51749 75.0226 4.83483 75.0226 5.23149V14.7685C75.0226 15.1765 75.1416 15.4995 75.3796 15.7375Z" fill="#fff"/>
</svg>
